<svg width="968" height="500" viewBox="0 0 968 500" fill="none" xmlns="http://www.w3.org/2000/svg">
<circle cx="250" cy="250" r="250" fill="#007FF3"/>
<path d="M212.3 365.5C196.7 365.5 182.7 363.1 170.3 358.3C157.9 353.5 147.4 346.5 138.8 337.3C130.2 327.9 123.6 316.5 119 303.1C114.4 289.7 112.1 274.3 112.1 256.9C112.1 239.5 114.7 224.1 119.9 210.7C125.3 197.3 132.6 186 141.8 176.8C151 167.4 161.8 160.3 174.2 155.5C186.6 150.7 199.9 148.3 214.1 148.3C222.7 148.3 230.5 149 237.5 150.4C244.5 151.6 250.6 153 255.8 154.6C261 156.2 265.3 157.9 268.7 159.7C272.1 161.5 274.5 162.8 275.9 163.6L264.8 194.5C260 191.5 253.1 188.7 244.1 186.1C235.3 183.3 225.7 181.9 215.3 181.9C206.3 181.9 197.9 183.5 190.1 186.7C182.3 189.7 175.5 194.3 169.7 200.5C164.1 206.7 159.7 214.5 156.5 223.9C153.3 233.3 151.7 244.2 151.7 256.6C151.7 267.6 152.9 277.7 155.3 286.9C157.9 296.1 161.8 304.1 167 310.9C172.2 317.5 178.8 322.7 186.8 326.5C194.8 330.1 204.4 331.9 215.6 331.9C229 331.9 239.9 330.6 248.3 328C256.7 325.2 263.2 322.6 267.8 320.2L278 351.1C275.6 352.7 272.3 354.3 268.1 355.9C264.1 357.5 259.3 359.1 253.7 360.7C248.1 362.1 241.8 363.2 234.8 364C227.8 365 220.3 365.5 212.3 365.5ZM346.009 361H309.709V204.1H346.009V361ZM349.909 158.2C349.909 165 347.709 170.4 343.309 174.4C338.909 178.4 333.709 180.4 327.709 180.4C321.509 180.4 316.209 178.4 311.809 174.4C307.409 170.4 305.209 165 305.209 158.2C305.209 151.2 307.409 145.7 311.809 141.7C316.209 137.7 321.509 135.7 327.709 135.7C333.709 135.7 338.909 137.7 343.309 141.7C347.709 145.7 349.909 151.2 349.909 158.2ZM481.719 236.8C478.719 235.8 474.519 234.8 469.119 233.8C463.919 232.6 457.819 232 450.819 232C446.819 232 442.519 232.4 437.919 233.2C433.519 234 430.419 234.7 428.619 235.3V361H392.319V211.6C399.319 209 408.019 206.6 418.419 204.4C429.019 202 440.719 200.8 453.519 200.8C455.919 200.8 458.719 201 461.919 201.4C465.119 201.6 468.319 202 471.519 202.6C474.719 203 477.819 203.6 480.819 204.4C483.819 205 486.219 205.6 488.019 206.2L481.719 236.8Z" fill="white"/>
<path d="M504.615 282.7C504.615 271.1 506.415 260.3 510.015 250.3C513.615 240.1 518.715 231.3 525.315 223.9C532.115 216.5 540.315 210.7 549.915 206.5C559.515 202.3 570.315 200.2 582.315 200.2C597.115 200.2 611.115 202.9 624.315 208.3L616.515 238C612.315 236.2 607.515 234.7 602.115 233.5C596.915 232.3 591.315 231.7 585.315 231.7C571.115 231.7 560.315 236.2 552.915 245.2C545.515 254 541.815 266.5 541.815 282.7C541.815 298.3 545.315 310.7 552.315 319.9C559.315 328.9 571.115 333.4 587.715 333.4C593.915 333.4 600.015 332.8 606.015 331.6C612.015 330.4 617.215 328.9 621.615 327.1L626.715 357.1C622.715 359.1 616.615 360.9 608.415 362.5C600.415 364.1 592.115 364.9 583.515 364.9C570.115 364.9 558.415 362.9 548.415 358.9C538.615 354.7 530.415 349 523.815 341.8C517.415 334.4 512.615 325.7 509.415 315.7C506.215 305.5 504.615 294.5 504.615 282.7ZM709.419 364C698.619 363.8 689.619 362.6 682.419 360.4C675.419 358.2 669.819 355.1 665.619 351.1C661.419 346.9 658.419 341.8 656.619 335.8C655.019 329.6 654.219 322.6 654.219 314.8V134.2L690.519 128.2V307.9C690.519 312.3 690.819 316 691.419 319C692.219 322 693.519 324.6 695.319 326.8C697.119 328.8 699.519 330.4 702.519 331.6C705.719 332.6 709.719 333.4 714.519 334L709.419 364ZM735.181 283.3C735.181 269.5 737.181 257.4 741.181 247C745.381 236.6 750.881 228 757.681 221.2C764.481 214.2 772.281 209 781.081 205.6C789.881 202 798.881 200.2 808.081 200.2C829.681 200.2 846.481 206.9 858.481 220.3C870.681 233.7 876.781 253.7 876.781 280.3C876.781 282.3 876.681 284.6 876.481 287.2C876.481 289.6 876.381 291.8 876.181 293.8H772.681C773.681 306.4 778.081 316.2 785.881 323.2C793.881 330 805.381 333.4 820.381 333.4C829.181 333.4 837.181 332.6 844.381 331C851.781 329.4 857.581 327.7 861.781 325.9L866.581 355.6C864.581 356.6 861.781 357.7 858.181 358.9C854.781 359.9 850.781 360.8 846.181 361.6C841.781 362.6 836.981 363.4 831.781 364C826.581 364.6 821.281 364.9 815.881 364.9C802.081 364.9 790.081 362.9 779.881 358.9C769.681 354.7 761.281 349 754.681 341.8C748.081 334.4 743.181 325.8 739.981 316C736.781 306 735.181 295.1 735.181 283.3ZM840.481 267.1C840.481 262.1 839.781 257.4 838.381 253C836.981 248.4 834.881 244.5 832.081 241.3C829.481 237.9 826.181 235.3 822.181 233.5C818.381 231.5 813.781 230.5 808.381 230.5C802.781 230.5 797.881 231.6 793.681 233.8C789.481 235.8 785.881 238.5 782.881 241.9C780.081 245.3 777.881 249.2 776.281 253.6C774.681 258 773.581 262.5 772.981 267.1H840.481Z" fill="black"/>
</svg>
